{"title":"Wisin ft.Ricky Martin - Que Se Sienta El Deseo (2015.Latin)","uid":12526444,"size":131370690,"categoryP":"video","categoryS":"music_videos","magnet":"?xt=urn:btih:89d819f771b8495f42a91a3e0fb2f9761b652f78&amp;dn=Wisin+ft.Ricky+Martin+-+Que+Se+Sienta+El+Deseo+%282015.Latin%29&amp;tr=udp%3A%2F%2Ftracker.leechers-paradise.org%3A6969&amp;tr=udp%3A%2F%2Fzer0day.ch%3A1337&amp;tr=udp%3A%2F%2Fopen.demonii.com%3A1337&amp;tr=udp%3A%2F%2Ftracker.coppersurfer.tk%3A6969&amp;tr=udp%3A%2F%2Fexodus.desync.com%3A6969","seeders":1,"leechers":0,"uploader":"MeRaDil","files":1,"time":1444068935,"description":"WISIN ft.RICKY MARTIN - QUE SE SIENTA EL DESEO\r\n\r\n \nhttp://gifyu.com/images/wisin-01.png\r\n \nhttp://gifyu.com/images/wisin-02.png\r\n \nhttp://gifyu.com/images/wisin-03.png\r\n\r\n\r\nMEDIA INFO\r\nGeneral\r\nWisin ft. Ricky Martin - Que Se Sienta El Deseo\r\nFormat                                   : MPEG-4\r\nFormat profile                           : Base Media\r\nCodec ID                                 : isom\r\nFile size                                : 125 MiB\r\nDuration                                 : 4mn 13s\r\nOverall bit rate                         : 4 144 Kbps\r\nMusicVid name                            : Que Se Sienta El Deseo\r\nPerformer                                : Wisin ft. Ricky Martin\r\nGenre                                    : Reggaeton\r\nContentType                              : Music Video\r\nRecorded date                            : 2015\r\nMake                                     : MeRaDil\r\nRelease date                             : Puerto Rico/USA - october 2 - 2015\r\n\r\nVideo\r\nID                                       : 1\r\nFormat                                   : AVC\r\nFormat/Info                              : Advanced Video Codec\r\nFormat profile                           :   \r\nFormat settings, CABAC                   : Yes\r\nFormat settings, ReFrames                : 2 frames\r\nCodec ID                                 : avc1\r\nCodec ID/Info                            : Advanced Video Coding\r\nDuration                                 : 4mn 13s\r\nBit rate                                 : 3 882 Kbps\r\nWidth                                    : 1 920 pixels\r\nHeight                                   : 1 080 pixels\r\nDisplay aspect ratio                     : 16:9\r\nFrame rate mode                          : Variable\r\nFrame rate                               : 23.976 fps\r\nMinimum frame rate                       : 23.974 fps\r\nMaximum frame rate                       : 23.981 fps\r\nColor space                              : YUV\r\nChroma subsampling                       : 4:2:0\r\nBit depth                                : 8 bits\r\nScan type                                : Progressive\r\nBits/(Pixel*Frame)                       : 0.078\r\nStream size                              : 117 MiB (94%)\r\n\r\nAudio\r\nID                                       : 2\r\nFormat                                   : AAC\r\nFormat/Info                              : Advanced Audio Codec\r\nFormat profile                           : LC\r\nCodec ID                                 : 40\r\nDuration                                 : 4mn 13s\r\nBit rate mode                            : Constant\r\nBit rate                                 : 256 Kbps\r\nChannel(s)                               : 2 channels\r\nChannel positions                        : Front: L R\r\nSampling rate                            : 44.1 KHz\r\nCompression mode                         : Lossy\r\nStream size                              : 7.74 MiB (6%)\r\n\r\nWisin * Ricky Martin * Reggaeton/Latin * Promo","torrent":{"xt":"urn:btih:89d819f771b8495f42a91a3e0fb2f9761b652f78","amp;dn":"Wisin+ft.Ricky+Martin+-+Que+Se+Sienta+El+Deseo+%282015.Latin%29","amp;tr":["udp%3A%2F%2Ftracker.leechers-paradise.org%3A6969","udp%3A%2F%2Fzer0day.ch%3A1337","udp%3A%2F%2Fopen.demonii.com%3A1337","udp%3A%2F%2Ftracker.coppersurfer.tk%3A6969","udp%3A%2F%2Fexodus.desync.com%3A6969"],"infoHash":"89d819f771b8495f42a91a3e0fb2f9761b652f78","infoHashBuffer":{"type":"Buffer","data":[137,216,25,247,113,184,73,95,66,169,26,62,15,178,249,118,27,101,47,120]},"announce":[],"urlList":[]}}